<?xml version="1.0" encoding="utf-8"?>
<!-- Generator: Adobe Illustrator 23.0.1, SVG Export Plug-In . SVG Version: 6.00 Build 0)  -->
<svg version="1.1" id="Ebene_1" xmlns="http://www.w3.org/2000/svg" xmlns:xlink="http://www.w3.org/1999/xlink" x="0px" y="0px"
	 viewBox="0 0 696.35 164.87" style="enable-background:new 0 0 696.35 164.87;" xml:space="preserve">
<style type="text/css">
	.st0{fill:none;}
	.st1{fill:#0084FF;stroke:#000000;stroke-width:5;stroke-miterlimit:10;}
	.st2{fill:#00CEFF;stroke:#000000;stroke-width:5;stroke-miterlimit:10;}
	.st3{fill:#00FFAB;stroke:#000000;stroke-width:5;stroke-miterlimit:10;}
	.st4{fill:#00FFFF;stroke:#000000;stroke-width:5;stroke-miterlimit:10;}
	.st5{fill:#00FF6E;stroke:#000000;stroke-width:5;stroke-miterlimit:10;}
</style>
<polygon class="st0" points="229.83,225.65 220.21,230.04 211.6,223.91 212.61,213.39 222.22,209 230.83,215.13 "/>
<path class="st1" d="M100.88,151.93L181.76,12.1c1.3-2.25-0.32-5.05-2.91-5.06L17.31,6.92c-2.59,0-4.22,2.8-2.92,5.05l80.65,139.96
	C96.34,154.17,99.58,154.18,100.88,151.93z"/>
<path class="st2" d="M223.13,11.18l-80.77,139.89c-1.3,2.25,0.32,5.05,2.92,5.05h161.53c2.59,0,4.22-2.81,2.92-5.05L228.97,11.18
	C227.67,8.93,224.43,8.93,223.13,11.18z"/>
<path class="st3" d="M475.59,12.29l-80.77,139.89c-1.3,2.25,0.32,5.05,2.92,5.05h161.53c2.59,0,4.22-2.81,2.92-5.05L481.42,12.29
	C480.13,10.04,476.88,10.04,475.59,12.29z"/>
<path class="st4" d="M356.86,154.44l80.77-139.89c1.3-2.25-0.32-5.05-2.92-5.05H273.18c-2.59,0-4.22,2.81-2.92,5.05l80.77,139.89
	C352.32,156.68,355.57,156.68,356.86,154.44z"/>
<path class="st5" d="M605.29,155.55l80.77-139.89c1.3-2.25-0.32-5.05-2.92-5.05H521.6c-2.59,0-4.22,2.81-2.92,5.05l80.77,139.89
	C600.75,157.79,603.99,157.79,605.29,155.55z"/>
<line class="st5" x1="134.25" y1="94.24" x2="61.77" y2="94.18"/>
<line class="st5" x1="175.14" y1="94.31" x2="207.95" y2="155.24"/>
<line class="st5" x1="201.8" y1="48.13" x2="263.35" y2="156.12"/>
<line class="st5" x1="505.78" y1="54.47" x2="449.46" y2="157.23"/>
<line class="st5" x1="535.44" y1="105.85" x2="505.78" y2="157.23"/>
<line class="st4" x1="306.49" y1="74.49" x2="437.75" y2="11.41"/>
<line class="st4" x1="326.4" y1="66.85" x2="381.49" y2="108"/>
<line class="st4" x1="565.57" y1="94.79" x2="639.3" y2="94.79"/>
<line class="st4" x1="667.45" y1="48.62" x2="538.15" y2="48.62"/>
</svg>
