<?xml version="1.0" encoding="utf-8"?>
<!-- Generator: Adobe Illustrator 23.0.1, SVG Export Plug-In . SVG Version: 6.00 Build 0)  -->
<svg version="1.1" id="Ebene_1" xmlns="http://www.w3.org/2000/svg" xmlns:xlink="http://www.w3.org/1999/xlink" x="0px" y="0px"
	 viewBox="0 0 914.09 265.04" style="enable-background:new 0 0 914.09 265.04;" xml:space="preserve">
<style type="text/css">
	.st0{fill:none;}
	.st1{fill:#0084FF;stroke:#000000;stroke-width:5;stroke-miterlimit:10;}
	.st2{fill:#00CEFF;stroke:#000000;stroke-width:5;stroke-miterlimit:10;}
	.st3{fill:#00FFAB;stroke:#000000;stroke-width:5;stroke-miterlimit:10;}
	.st4{fill:#00FFFF;stroke:#000000;stroke-width:5;stroke-miterlimit:10;}
	.st5{fill:#00FF6E;stroke:#000000;stroke-width:5;stroke-miterlimit:10;}
	.st6{fill:#00ADD4;}
</style>
<polygon class="st0" points="330,225.65 320.39,230.04 311.78,223.91 312.78,213.39 322.4,209 331,215.13 "/>
<path class="st1" d="M201.05,151.93L281.93,12.1c1.3-2.25-0.32-5.05-2.91-5.06L117.49,6.92c-2.59,0-4.22,2.8-2.92,5.05l80.65,139.96
	C196.51,154.17,199.75,154.18,201.05,151.93z"/>
<path class="st2" d="M323.31,11.18l-80.77,139.89c-1.3,2.25,0.32,5.05,2.92,5.05h161.53c2.59,0,4.22-2.81,2.92-5.05L329.14,11.18
	C327.85,8.93,324.6,8.93,323.31,11.18z"/>
<path class="st3" d="M575.76,12.29l-80.77,139.89c-1.3,2.25,0.32,5.05,2.92,5.05h161.53c2.59,0,4.22-2.81,2.92-5.05L581.6,12.29
	C580.3,10.04,577.06,10.04,575.76,12.29z"/>
<path class="st4" d="M457.04,154.44L537.8,14.55c1.3-2.25-0.32-5.05-2.92-5.05H373.35c-2.59,0-4.22,2.81-2.92,5.05l80.77,139.89
	C452.5,156.68,455.74,156.68,457.04,154.44z"/>
<path class="st5" d="M705.46,155.55l80.77-139.89c1.3-2.25-0.32-5.05-2.92-5.05H621.78c-2.59,0-4.22,2.81-2.92,5.05l80.77,139.89
	C700.92,157.79,704.16,157.79,705.46,155.55z"/>
<line class="st5" x1="234.42" y1="94.24" x2="161.94" y2="94.18"/>
<line class="st5" x1="275.31" y1="94.31" x2="308.12" y2="155.24"/>
<line class="st5" x1="301.97" y1="48.13" x2="363.53" y2="156.12"/>
<line class="st5" x1="605.95" y1="54.47" x2="549.64" y2="157.23"/>
<line class="st5" x1="635.62" y1="105.85" x2="605.95" y2="157.23"/>
<line class="st4" x1="406.67" y1="74.49" x2="537.92" y2="11.41"/>
<line class="st4" x1="426.57" y1="66.85" x2="481.67" y2="108"/>
<line class="st4" x1="665.74" y1="94.79" x2="739.48" y2="94.79"/>
<line class="st4" x1="767.63" y1="48.62" x2="638.32" y2="48.62"/>
<g>
	<rect x="-286.75" y="172.2" class="st0" width="1481.74" height="120"/>
	<path class="st6" d="M16.29,178.43H40.8c17.28,0,30.08,6,30.08,23.99c0,17.35-12.85,25.23-29.61,25.23H30.09v28.61h-13.8V178.43z
		 M40.14,216.61c11.61,0,17.14-4.62,17.14-14.19c0-9.66-6.05-12.95-17.61-12.95h-9.57v27.13H40.14z"/>
	<path class="st6" d="M76.69,240.55c0-12.52,10.38-19.04,34.37-21.61c-0.19-6.28-2.71-11.52-10.62-11.52
		c-5.81,0-11.28,2.62-16.42,5.76l-5.05-9.14c6.43-4.05,14.71-7.66,23.99-7.66c14.61,0,21.8,9,21.8,25.28v34.61h-11.23l-1.05-6.47
		h-0.38c-5.24,4.47-11.23,7.9-18.14,7.9C83.74,257.69,76.69,250.74,76.69,240.55z M111.06,240.6v-13.14
		c-15.85,2-21.13,6.14-21.13,12.04c0,5.17,3.52,7.43,8.43,7.43C103.11,246.93,106.73,244.6,111.06,240.6z"/>
	<path class="st6" d="M133.95,197.8h13.9l9.28,30.32c1.62,5.76,3.33,11.76,4.95,17.61h0.48c1.62-5.85,3.33-11.85,4.95-17.61
		l9.28-30.32h13.23l-19.85,58.45h-15.85L133.95,197.8z"/>
	<path class="st6" d="M195.57,227.08c0-18.99,13.19-30.7,26.94-30.7c15.8,0,24.13,11.42,24.13,27.75c0,2.62-0.29,5.24-0.6,6.66
		h-37.1c1.14,10.38,7.81,16.28,17.23,16.28c5,0,9.28-1.57,13.57-4.24l4.67,8.52c-5.57,3.76-12.61,6.33-20.04,6.33
		C208.23,257.69,195.57,246.36,195.57,227.08z M234.79,221.46c0-9-4-14.47-12-14.47c-6.81,0-12.8,5.09-14,14.47H234.79z"/>
	<path class="st6" d="M259.76,241.22v-69.02h13.71v69.74c0,3.38,1.52,4.57,2.95,4.57c0.62,0,1.09,0,2.14-0.24l1.71,10.23
		c-1.67,0.67-3.95,1.19-7.24,1.19C263.33,257.69,259.76,251.4,259.76,241.22z"/>
	<path class="st6" d="M317,178.43h20.75c23.85,0,37.94,12.85,37.94,38.6c0,25.75-14.09,39.22-37.22,39.22H317V178.43z
		 M336.85,245.07c15.66,0,24.66-8.9,24.66-28.04s-9-27.42-24.66-27.42h-6.05v55.46H336.85z"/>
	<path class="st6" d="M384.14,248.93l27.56-40.22h-24.47v-10.9h41.65v7.33l-27.56,40.22h28.47v10.9h-45.65V248.93z"/>
	<path class="st6" d="M439.9,179.81c0-4.62,3.62-7.76,8.47-7.76s8.47,3.14,8.47,7.76c0,4.52-3.62,7.76-8.47,7.76
		S439.9,184.33,439.9,179.81z M441.47,197.8h13.71v58.45h-13.71V197.8z"/>
	<path class="st6" d="M469.51,240.55c0-12.52,10.38-19.04,34.37-21.61c-0.19-6.28-2.71-11.52-10.62-11.52
		c-5.81,0-11.28,2.62-16.42,5.76l-5.05-9.14c6.43-4.05,14.71-7.66,23.99-7.66c14.61,0,21.8,9,21.8,25.28v34.61h-11.23l-1.05-6.47
		h-0.38c-5.24,4.47-11.23,7.9-18.14,7.9C476.55,257.69,469.51,250.74,469.51,240.55z M503.87,240.6v-13.14
		c-15.85,2-21.13,6.14-21.13,12.04c0,5.17,3.52,7.43,8.43,7.43C495.92,246.93,499.54,244.6,503.87,240.6z"/>
	<path class="st6" d="M534.05,172.19h13.42v52.5h0.38l21.66-26.9h15l-20.04,23.8l22.09,34.65h-14.9l-15.04-25.37l-9.14,10.52v14.85
		h-13.42V172.19z"/>
	<path class="st6" d="M589.57,227.08c0-19.47,13.23-30.7,27.8-30.7c14.57,0,27.8,11.23,27.8,30.7c0,19.37-13.23,30.61-27.8,30.61
		C602.81,257.69,589.57,246.45,589.57,227.08z M631.08,227.08c0-11.71-5.14-19.52-13.71-19.52s-13.71,7.81-13.71,19.52
		s5.14,19.42,13.71,19.42S631.08,238.79,631.08,227.08z"/>
	<path class="st6" d="M650.76,197.8h13.9l9.28,30.32c1.62,5.76,3.33,11.76,4.95,17.61h0.48c1.62-5.85,3.33-11.85,4.95-17.61
		l9.28-30.32h13.23l-19.85,58.45h-15.85L650.76,197.8z"/>
	<path class="st6" d="M715.38,179.81c0-4.62,3.62-7.76,8.47-7.76s8.47,3.14,8.47,7.76c0,4.52-3.62,7.76-8.47,7.76
		S715.38,184.33,715.38,179.81z M716.95,197.8h13.71v58.45h-13.71V197.8z"/>
	<path class="st6" d="M750.17,236.55V208.7h-8.33v-10.28l9.04-0.62l1.62-15.95h11.38v15.95h14.9v10.9h-14.9v27.82
		c0,6.88,2.67,10.26,8.28,10.26c2,0,4.38-0.67,6.09-1.33l2.33,10.09c-3.19,1.05-7.26,2.14-11.95,2.14
		C755.17,257.69,750.17,249.17,750.17,236.55z"/>
	<path class="st6" d="M785.33,227.08c0-19.47,13.76-30.7,29.32-30.7c7.43,0,12.85,2.86,17.09,6.57l-6.66,8.9
		c-3.09-2.71-6.05-4.28-9.71-4.28c-9.42,0-15.95,7.81-15.95,19.52s6.43,19.42,15.52,19.42c4.57,0,8.76-2.24,12.09-5.05l5.57,9.04
		c-5.47,4.86-12.42,7.19-19.09,7.19C797.56,257.69,785.33,246.45,785.33,227.08z"/>
	<path class="st6" d="M844.16,172.19h13.71v21.75l-0.57,11.28c4.9-4.62,10.71-8.85,18.71-8.85c12.52,0,17.99,8.47,17.99,23.23v36.65
		h-13.71v-34.89c0-9.62-2.76-13.23-9.09-13.23c-5.14,0-8.52,2.52-13.33,7.28v40.84h-13.71V172.19z"/>
</g>
</svg>
